Coordinates
version=1
nRows=29
nColumns=24
inDegrees=yes

Units are S.I. units (second, meters, Newtons, ...)
Angles are in degrees.

endheader
time	pelvis_tilt	pelvis_list	pelvis_rotation	pelvis_tx	pelvis_ty	pelvis_tz	hip_flexion_r	hip_adduction_r	hip_rotation_r	knee_angle_r	ankle_angle_r	subtalar_angle_r	mtp_angle_r	hip_flexion_l	hip_adduction_l	hip_rotation_l	knee_angle_l	ankle_angle_l	subtalar_angle_l	mtp_angle_l	lumbar_extension	lumbar_bending	lumbar_rotation
      1.42116667	      0.39651930	      3.17750809	     -2.14646427	      0.20585264	      1.02970319	      0.32132041	     19.63717250	     -6.27511175	     -6.61977984	    -70.92536610	    -11.86265904	    -12.74773185	      4.42247086	      8.97606638	      9.16923171	      4.26184601	    -12.58315808	      3.36570086	    -14.54408493	      0.57433906	     -4.45277005	     -6.22138188	      4.00363971
      1.42533333	      0.44036837	      3.08381594	     -2.20064350	      0.21061193	      1.03043766	      0.32124880	     20.15995066	     -6.06148836	     -6.35658047	    -70.68641685	    -11.33373283	    -12.68264354	      2.73514544	      8.53298724	      9.06976992	      4.22068081	    -12.39272703	      3.52141051	    -14.41698858	     -0.37706874	     -4.55506923	     -6.11085799	      3.93709610
      1.42950000	      0.50720545	      2.97781941	     -2.22784309	      0.21536832	      1.03118667	      0.32112692	     20.62918092	     -5.84502393	     -6.13265371	    -70.37683414	    -10.91173715	    -12.66299774	      2.73189021	      8.04813895	      8.97120240	      4.29424105	    -12.17420817	      3.65653594	    -14.42484561	     -0.38659607	     -4.69446085	     -5.97034487	      3.94030344
      1.43366667	      0.56909291	      2.86378464	     -2.24192507	      0.22011506	      1.03191821	      0.32100211	     21.08426154	     -5.61791618	     -5.91921377	    -70.01469669	    -10.47055607	    -12.58828002	      2.73082508	      7.57508133	      8.86179623	      4.34470318	    -11.96551894	      3.76760596	    -14.40199081	     -0.39954451	     -4.83284903	     -5.83202050	      3.90157157
      1.43783333	      0.61253227	      2.76781482	     -2.24663663	      0.22485446	      1.03256867	      0.32085652	     21.54941184	     -5.41473890	     -5.71333181	    -69.61663265	    -10.02153544	    -12.49565029	      2.73319999	      7.12763899	      8.77305011	      4.39889630	    -11.76641464	      3.88251116	    -14.37671067	     -0.41273041	     -4.93895544	     -5.71206263	      3.84909210
      1.44200000	      0.66736143	      2.67007378	     -2.22789630	      0.22958296	      1.03321891	      0.32068622	     21.97980912	     -5.21712870	     -5.53239640	    -69.16524321	     -9.55826722	    -12.34342311	      2.73688684	      6.66650750	      8.68453463	      4.47370338	    -11.56307430	      3.99992779	    -14.34279967	     -0.43039719	     -5.06111510	     -5.58640569	      3.77905359
      1.44616667	      0.71945238	      2.56866928	     -2.20082058	      0.23431854	      1.03384740	      0.32051139	     22.39274095	     -5.01600190	     -5.36129523	    -68.66073934	     -9.09307405	    -12.18774227	      2.74296459	      6.20774398	      8.59289772	      4.56347945	    -11.36145263	      4.11349068	    -14.31360385	     -0.45117420	     -5.17809035	     -5.46093096	      3.69627116
      1.45033333	      0.77208827	      2.47200620	     -2.15164191	      0.23903126	      1.03443620	      0.32030098	     22.78700029	     -4.82841179	     -5.21078367	    -68.11082278	     -8.60734875	    -12.01347031	      2.75284727	      5.75422332	      8.50877792	      4.66190584	    -11.16648827	      4.22637053	    -14.29041274	     -0.47343419	     -5.29895255	     -5.33807397	      3.60357928
      1.45450000	      0.82042978	      2.37213470	     -2.08437008	      0.24373359	      1.03498885	      0.32007265	     23.16654508	     -4.64272000	     -5.07796934	    -67.51186885	     -8.11262738	    -11.81593852	      2.76611387	      5.30611780	      8.42129653	      4.78384772	    -10.97324255	      4.33910435	    -14.26940832	     -0.49934826	     -5.41827575	     -5.21473715	      3.48955481
      1.45866667	      0.86489648	      2.28229183	     -2.00234591	      0.24842272	      1.03549711	      0.31981629	     23.53362193	     -4.47430118	     -4.95608592	    -66.86870373	     -7.59706565	    -11.59416267	      2.78439224	      4.86528529	      8.34652516	      4.92040104	    -10.78287083	      4.44748496	    -14.25466294	     -0.53180220	     -5.53312327	     -5.10072250	      3.35346956
      1.46283333	      0.89927169	      2.19442214	     -1.90839395	      0.25313316	      1.03596059	      0.31954289	     23.89077955	     -4.31412980	     -4.85018948	    -66.17952295	     -7.05876485	    -11.36684058	      2.81048331	      4.43328048	      8.27419300	      5.07079792	    -10.58998608	      4.54583918	    -14.26375702	     -0.58656076	     -5.62614476	     -4.99177858	      3.17113090
      1.46700000	      0.92530276	      2.10393799	     -1.79725707	      0.25780787	      1.03637727	      0.31925403	     24.23826300	     -4.15336177	     -4.75398332	    -65.43638267	     -6.54699770	    -11.15572570	      2.83819099	      4.01785417	      8.19767313	      5.23807178	    -10.40820476	      4.66093895	    -14.25248665	     -0.62868517	     -5.71828756	     -4.86738487	      3.03009984
      1.47116667	      0.96416413	      2.01195271	     -1.66797146	      0.26248305	      1.03678994	      0.31893536	     24.54738165	     -4.00046372	     -4.67792671	    -64.63980343	     -6.00498569	    -10.93588853	      2.87224193	      3.59220119	      8.12038162	      5.41336471	    -10.23425926	      4.76711428	    -14.25652059	     -0.67574696	     -5.82489936	     -4.74866592	      2.85920258
      1.47533333	      0.95788814	      1.91203685	     -1.51404146	      0.26713951	      1.03710019	      0.31858857	     24.88407693	     -3.84438135	     -4.62698784	    -63.79098029	     -5.48601575	    -10.79123345	      2.90011133	      3.23571458	      8.03225046	      5.58630803	    -10.10197576	      4.88040002	    -14.25090394	     -0.70286442	     -5.88451511	     -4.61556649	      2.73520674
      1.47950000	      0.98140442	      1.82372832	     -1.35607141	      0.27180144	      1.03742542	      0.31823100	     25.16956928	     -3.70865401	     -4.57762558	    -62.89668538	     -4.94474305	    -10.56839562	      2.93528034	      2.83498239	      7.95698789	      5.78927221	     -9.94235474	      4.99403452	    -14.25199675	     -0.73807021	     -5.97733069	     -4.49708572	      2.54266033
      1.48366667	      0.99334560	      1.76896125	     -1.19621764	      0.27646837	      1.03766821	      0.31786999	     25.45875039	     -3.61275990	     -4.52219150	    -61.97542265	     -4.39594518	    -10.35586324	      2.99608974	      2.44073262	      7.91748659	      6.00637178	     -9.76430659	      5.06719133	    -14.30460049	     -0.82253325	     -6.05122727	     -4.42652341	      2.24190193
      1.48783333	      0.96713759	      1.67355973	     -1.00822585	      0.28112466	      1.03786866	      0.31747646	     25.75247003	     -3.47755673	     -4.50010448	    -60.96890058	     -3.94012971	    -10.24198742	      3.02488945	      2.11187303	      7.83097912	      6.22214013	     -9.64328651	      5.20009674	    -14.29013220	     -0.85049922	     -6.08088853	     -4.29138574	      2.12942279
      1.49200000	      0.98777322	      1.59541185	     -0.81933576	      0.28577734	      1.03808852	      0.31708423	     25.97897889	     -3.36997184	     -4.48344074	    -59.92404451	     -3.45574095	    -10.09032272	      3.05772612	      1.72537798	      7.76095955	      6.44045200	     -9.50360644	      5.32218136	    -14.28706105	     -0.88396881	     -6.17036709	     -4.18326934	      1.93338897
      1.49616667	      0.99439764	      1.54004789	     -0.63169368	      0.29045667	      1.03824528	      0.31668188	     26.20582786	     -3.29093324	     -4.46284729	    -58.84204981	     -3.00744542	     -9.92998470	      3.10046997	      1.34219775	      7.71578837	      6.67821811	     -9.33781853	      5.42726136	    -14.31952474	     -0.94186127	     -6.22914438	     -4.10909259	      1.62970758
      1.50033333	      0.97149323	      1.47557415	     -0.42639139	      0.29512320	      1.03834476	      0.31626999	     26.43762084	     -3.20504574	     -4.45780944	    -57.69730457	     -2.60521556	     -9.85751106	      3.13954567	      1.00523161	      7.65789427	      6.92638903	     -9.20227443	      5.53071314	    -14.35318245	     -1.00511073	     -6.26599414	     -4.01951119	      1.38379326
      1.50450000	      0.92948336	      1.41589917	     -0.21775460	      0.29977644	      1.03835662	      0.31585941	     26.67488154	     -3.12625250	     -4.45841798	    -56.51263677	     -2.22740501	     -9.83918450	      3.16014543	      0.70528105	      7.60211980	      7.14646198	     -9.09920980	      5.65245120	    -14.34597375	     -1.03593442	     -6.28471012	     -3.92811155	      1.24912548
      1.50866667	      0.88010452	      1.35627031	     -0.00533393	      0.30445806	      1.03833971	      0.31544931	     26.89401578	     -3.05265169	     -4.46654615	    -55.27215622	     -1.89540469	     -9.82321803	      3.17648344	      0.40522517	      7.54374790	      7.38231891	     -8.98218676	      5.77844300	    -14.34454672	     -1.06742105	     -6.28711729	     -3.84242570	      1.05542399
      1.51283333	      0.88906408	      1.31642045	      0.20276157	      0.30915524	      1.03838973	      0.31504245	     27.02642054	     -3.00270307	     -4.47338203	    -53.97934525	     -1.63782088	     -9.83358585	      3.19566058	      0.02479016	      7.50657521	      7.64527767	     -8.82905058	      5.87210287	    -14.40461910	     -1.14330344	     -6.34532559	     -3.78715959	      0.68154472
      1.51700000	      0.80980934	      1.27449763	      0.42182760	      0.31384187	      1.03826404	      0.31463610	     27.23827090	     -2.95434051	     -4.49160264	    -52.64894718	     -1.37641003	     -9.88068204	      3.20174955	     -0.23237604	      7.46410613	      7.88011903	     -8.73450756	      5.99396974	    -14.40690528	     -1.18012608	     -6.31793588	     -3.71534045	      0.54297936
      1.52116667	      0.76002702	      1.23009393	      0.63554162	      0.31855366	      1.03814860	      0.31423835	     27.39334065	     -2.90540765	     -4.51870777	    -51.26568295	     -1.18038535	     -9.96262385	      3.20046300	     -0.53533821	      7.41613127	      8.11672111	     -8.61162612	      6.11816851	    -14.42085270	     -1.22170888	     -6.31648185	     -3.65720084	      0.33482523
      1.52533333	      0.71936284	      1.21308067	      0.84056819	      0.32327822	      1.03802763	      0.31386704	     27.51800576	     -2.87974539	     -4.52723134	    -49.83300989	     -1.08034863	    -10.11813842	      3.18427853	     -0.85817570	      7.39663437	      8.37641948	     -8.46925240	      6.20087612	    -14.49464986	     -1.30991908	     -6.31905604	     -3.63059832	     -0.01265656
      1.52950000	      0.66223387	      1.17759197	      1.05185815	      0.32802769	      1.03786564	      0.31348800	     27.63121826	     -2.84249420	     -4.56221015	    -48.34646995	     -0.97733874	    -10.25690751	      3.16040909	     -1.15417951	      7.35466046	      8.61421427	     -8.34939606	      6.31293600	    -14.53270098	     -1.38529861	     -6.29680714	     -3.58080406	     -0.21558859
      1.53366667	      0.60086651	      1.15433905	      1.25274607	      0.33278192	      1.03764373	      0.31313837	     27.73358614	     -2.81239960	     -4.58519323	    -46.82556100	     -0.91910677	    -10.44275743	      3.12079482	     -1.44982556	      7.32362335	      8.85165054	     -8.22076238	      6.41491353	    -14.56959954	     -1.47345125	     -6.28437167	     -3.54420283	     -0.44436623
      1.53783333	      0.51945947	      1.14588175	      1.45386075	      0.33755692	      1.03737028	      0.31279899	     27.83667492	     -2.80303591	     -4.61937639	    -45.26543600	     -0.88553191	    -10.61827208	      3.07390209	     -1.71929512	      7.30654556	      9.07142978	     -8.10443706	      6.52610105	    -14.60788194	     -1.55300536	     -6.23079232	     -3.53375064	     -0.64264579
